<svg id="Layer_1" data-name="Layer 1" xmlns="http://www.w3.org/2000/svg" viewBox="0 0 128 128"><defs><style>.cls-1,.cls-2{fill:none;stroke-miterlimit:10;}.cls-1{stroke:#fff;stroke-width:18px;}.cls-2{stroke:#231f20;stroke-width:12px;}</style></defs><path class="cls-1" d="M28,53.6v-17A8.67,8.67,0,0,1,36.64,28h17"/><path class="cls-2" d="M28,53.6v-17A8.67,8.67,0,0,1,36.64,28h17"/><path class="cls-1" d="M53.6,100h-17A8.67,8.67,0,0,1,28,91.36v-17"/><path class="cls-2" d="M53.6,100h-17A8.67,8.67,0,0,1,28,91.36v-17"/><path class="cls-1" d="M74.4,28h17A8.67,8.67,0,0,1,100,36.64v17"/><path class="cls-2" d="M74.4,28h17A8.67,8.67,0,0,1,100,36.64v17"/><path class="cls-1" d="M100,74.4v17A8.67,8.67,0,0,1,91.36,100h-17"/><path class="cls-2" d="M100,74.4v17A8.67,8.67,0,0,1,91.36,100h-17"/></svg>